# xmcd CD database file
#
# Track frame offsets:
#	150
#	14218
#	35420
#	49525
#	66690
#	77975
#	96918
#	110419
#	120692
#	134321
#	152091
#	169618
#
# Disc length: 2443 seconds
#
# Revision: 0
# Processed by: cddbd v1.5.1PL0 Copyright (c) Steve Scherf et al.
# Submitted via: CDex 1.51
#
DISCID=a609890c
DTITLE=Dave Sharp - The Summer Of Love   pt2
DYEAR=2002
DGENRE=Blues
TTITLE0=Misunderstood
TTITLE1=Blind Willie McTell
TTITLE2=Sure High
TTITLE3=The Freedom Drive
TTITLE4=The House of mercy
TTITLE5=Back On The Right Side
TTITLE6=Love Magic
TTITLE7=Get Sun
TTITLE8=Sylvio
TTITLE9=The Road To Mexico
TTITLE10=Hard Travellin
TTITLE11=Dirty Old Town
EXTD=YEAR: 2002
EXTT0=
EXTT1=
EXTT2=
EXTT3=
EXTT4=
EXTT5=
EXTT6=
EXTT7=
EXTT8=
EXTT9=
EXTT10=
EXTT11=
PLAYORDER=
